<?xml version="1.0" encoding="UTF-8" standalone="no"?>
<svg
        viewBox="0 0 24 24"
        fill="none"
        stroke="#ffffff"
        stroke-width="0.15"
        data-darkreader-inline-stroke=""
        version="1.1"
        id="svg1"
        width="100%"
        height="100%"
        xmlns="http://www.w3.org/2000/svg"
>
  <defs
     id="defs1" />
  <g
     id="SVGRepo_iconCarrier"
     transform="matrix(1.4521185,0,0,1.4521423,-5.4254217,-5.425923)">
    <path
       fill-rule="evenodd"
       clip-rule="evenodd"
       d="M 10.198533,17.372249 C 10.341917,17.641 10.4855,17.883166 10.622749,18.09775 9.1645415,17.769833 7.8992165,16.93225 7.0236498,15.781916 7.6015081,15.4565 8.3416247,15.119166 9.2313832,14.872333 c 0.2528833,0.991833 0.60965,1.829584 0.9671498,2.499916 z M 11.3015,16.784 c -0.310583,-0.58225 -0.621834,-1.309417 -0.846084,-2.171 0.482751,-0.07167 0.998083,-0.113001 1.544667,-0.113001 0.5465,0 1.061833,0.04133 1.5445,0.112918 C 13.320333,15.474583 13.009083,16.20175 12.6985,16.784 12.4495,17.250916 12.201416,17.623667 12,17.896416 11.798583,17.623667 11.550499,17.250916 11.3015,16.784 Z M 10.125,12 c 0,0.48675 0.03275,0.94875 0.0905,1.384917 C 10.772416,13.2995 11.367833,13.25 12.000083,13.25 c 0.632167,0 1.227584,0.04942 1.784416,0.134917 0.05775,-0.436251 0.0905,-0.898167 0.0905,-1.384917 0,-0.48675 -0.03275,-0.948667 -0.0905,-1.384917 C 13.227667,10.7005 12.63225,10.75 12.000083,10.75 11.367833,10.75 10.772416,10.7005 10.2155,10.615083 10.15775,11.05125 10.125,11.51325 10.125,12 Z M 8.9890664,10.357333 C 8.9164753,10.873166 8.8749997,11.421166 8.8749997,12 c 0,0.578833 0.041475,1.126834 0.1140667,1.642666 -1.06125,0.284917 -1.9400499,0.686667 -2.6196999,1.073251 C 5.9724831,13.894667 5.7499998,12.973333 5.7499998,12 c 0,-0.973333 0.2224833,-1.894634 0.6193583,-2.7159336 0.679575,0.3865337 1.5583916,0.7883166 2.6197083,1.0732666 z M 10.455416,9.3870413 c 0.482751,0.071642 0.998083,0.112959 1.544667,0.112959 0.5465,0 1.061833,-0.041308 1.5445,-0.1129424 C 13.320333,8.5254582 13.009083,7.7982748 12.6985,7.2159998 12.4495,6.7491165 12.201416,6.3762999 12,6.1035999 c -0.201417,0.2727 -0.449501,0.6455166 -0.6985,1.1123833 -0.310583,0.5822749 -0.621834,1.3094583 -0.846084,2.1710581 z m 4.5555,0.9703757 C 15.083496,10.87325 15.125,11.42125 15.125,12 c 0,0.578833 -0.0415,1.12675 -0.114084,1.642583 1.06125,0.285 1.940083,0.68675 2.61975,1.073334 C 18.0275,13.894583 18.249999,12.97325 18.249999,12 c 0,-0.97325 -0.222499,-1.894609 -0.619333,-2.7158919 -0.679583,0.3865337 -1.558417,0.7883079 -2.61975,1.0733089 z m 1.965417,-2.1392672 c -0.577916,0.3254417 -1.318,0.6627251 -2.207666,0.9095834 C 14.515749,8.1358665 14.159,7.2980748 13.801499,6.6277665 13.658083,6.3589748 13.5145,6.1168749 13.37725,5.9022499 14.8355,6.2301916 16.100833,7.0677998 16.976333,8.2181498 Z M 9.2313748,9.1277082 C 8.3416747,8.8808415 7.6015831,8.5435582 7.0236582,8.2181081 7.8992165,7.0677832 9.1645415,6.2301916 10.622666,5.9022499 10.4855,6.1168749 10.341917,6.3589665 10.198525,6.6277498 9.8410332,7.2980581 9.4842665,8.1358415 9.2313748,9.1277082 Z M 14.768667,14.87225 C 14.515749,15.864166 14.159,16.701917 13.801499,17.372249 13.658083,17.641 13.5145,17.883166 13.37725,18.09775 14.8355,17.769833 16.100833,16.932167 16.976416,15.781833 16.3985,15.456417 15.658417,15.119166 14.768667,14.87225 Z M 12,19.499999 c 4.142166,0 7.5,-3.357832 7.5,-7.499999 0,-4.1421335 -3.357834,-7.5000001 -7.5,-7.5000001 -4.1421336,0 -7.5000001,3.3578666 -7.5000001,7.5000001 0,4.142167 3.3578665,7.499999 7.5000001,7.499999 z"
       fill="#ffffff"
       id="path1" />
  </g>
</svg>
